<svg version="1.1" viewBox="0.0 0.0 961.4540682414698 260.53805774278214" fill="none" stroke="none" stroke-linecap="square" stroke-miterlimit="10" xmlns:xlink="http://www.w3.org/1999/xlink" xmlns="http://www.w3.org/2000/svg"><clipPath id="p.0"><path d="m0 0l961.45404 0l0 260.53806l-961.45404 0l0 -260.53806z" clip-rule="nonzero"/></clipPath><g clip-path="url(#p.0)"><path fill="#000000" fill-opacity="0.0" d="m0 0l961.45404 0l0 260.53806l-961.45404 0z" fill-rule="evenodd"/><path fill="#000000" fill-opacity="0.0" d="m0 0l960.0 0l0 261.7953l-960.0 0z" fill-rule="evenodd"/><path fill="#ff0000" d="m155.79993 205.79688q-15.796875 0 -28.796875 -3.703125q-13.0 -3.6875 -19.796875 -9.296875q-1.8125 -8.796875 -2.609375 -17.09375q-0.796875 -8.296875 -0.796875 -16.109375q0 -17.796875 3.59375 -33.484375q3.609375 -15.703125 9.703125 -28.609375q6.109375 -12.90625 13.5 -22.203125q7.40625 -9.296875 14.796875 -14.296875l38.609375 24.40625q-18.40625 11.796875 -31.90625 28.09375q-13.5 16.296875 -20.796875 34.703125q-7.296875 18.390625 -7.296875 36.796875q4.59375 0.796875 9.390625 1.109375q4.8125 0.296875 9.8125 0.296875q9.796875 0 19.796875 -1.703125q10.0 -1.703125 20.390625 -5.5l6.8125 21.59375q-8.609375 2.609375 -17.40625 3.796875q-8.796875 1.203125 -17.0 1.203125z" fill-rule="nonzero"/><path fill="#ffffff" d="m214.40308 204.0l-10.203125 -139.59375l42.796875 -6.609375l-7.390625 82.40625l1.796875 0q8.0 -19.796875 19.09375 -31.796875q11.109375 -12.0 23.5 -12.0q3.609375 0 7.203125 1.1875q4.59375 5.609375 7.796875 15.3125q3.203125 9.6875 5.203125 21.5q2.0 11.796875 3.0 24.09375q1.0 12.296875 1.390625 23.40625q0.40625 11.09375 0.40625 19.09375l-36.0 3.0q0 -19.40625 -0.40625 -33.59375q-0.390625 -14.203125 -1.09375 -26.09375q-0.703125 -11.90625 -1.890625 -24.109375q-3.8125 1.390625 -8.71875 5.203125q-4.890625 3.796875 -9.890625 12.40625q-5.0 8.59375 -9.40625 24.09375q-4.390625 15.5 -7.390625 40.296875l-19.796875 1.796875zm142.20316 -115.796875q-7.609375 0 -13.109375 -5.5q-5.5 -5.5 -5.5 -13.109375q0 -7.59375 5.5 -13.09375q5.5 -5.5 13.109375 -5.5q7.59375 0 13.09375 5.5q5.5 5.5 5.5 13.09375q0 7.609375 -5.5 13.109375q-5.5 5.5 -13.09375 5.5zm-9.203125 115.796875l-10.203125 -99.0l42.796875 -6.59375l-12.796875 103.796875l-19.796875 1.796875zm70.80002 0l-10.203125 -139.59375l42.796875 -6.609375l-12.796875 144.40625l-19.796875 1.796875zm70.80002 0l-10.203125 -139.59375l42.796906 -6.609375l-12.7969055 144.40625l-19.796875 1.796875z" fill-rule="nonzero"/><path fill="#ff0000" d="m664.0063 205.79688q-10.8125 0 -20.109375 -4.40625q-9.296875 -4.390625 -15.5 -14.59375q-6.203125 -10.203125 -8.203125 -27.203125l-9.59375 -88.59375l47.59375 -3.0q-2.390625 29.0 -4.0 47.40625q-1.59375 18.390625 -2.390625 28.890625q-0.796875 10.5 -1.203125 15.203125q-0.40625 4.703125 -0.5 6.109375q-0.09375 1.390625 -0.09375 1.796875q0 12.390625 5.890625 17.59375q5.90625 5.203125 15.90625 5.203125q5.59375 0 11.09375 -2.203125q5.5 -2.203125 9.203125 -8.203125q3.703125 -6.0 3.90625 -17.0l1.796875 -92.796875l20.0 -1.0l-6.0 94.0q-0.796875 13.40625 -5.40625 21.90625q-4.59375 8.5 -11.59375 13.0q-7.0 4.5 -15.0 6.1875q-8.0 1.703125 -15.796875 1.703125z" fill-rule="nonzero"/><path fill="#ffffff" d="m757.0032 244.40625l-6.203125 -139.60938l42.796875 -6.59375l-4.390625 35.203125l1.390625 0q7.796875 -16.8125 18.0 -26.90625q10.203125 -10.09375 21.40625 -10.09375q3.796875 0 7.390625 1.1875q4.8125 5.8125 8.5 15.609375q3.703125 9.796875 5.703125 21.796875q2.0 12.0 2.0 24.59375q0 15.203125 -3.796875 25.515625q-3.796875 10.296875 -12.90625 15.5q-9.09375 5.1875 -24.890625 5.1875q-8.796875 0 -16.703125 -1.90625q-7.90625 -1.890625 -14.296875 -4.890625l-5.40625 43.59375l-18.59375 1.8125zm47.203125 -51.0q7.390625 0 12.59375 -2.8125q1.0 -5.390625 2.0 -12.984375q1.0 -7.609375 1.0 -19.8125q0 -6.796875 -0.609375 -14.390625q-0.59375 -7.609375 -1.5 -14.0q-0.890625 -6.40625 -1.890625 -9.203125q-3.59375 1.390625 -8.203125 4.0q-4.59375 2.59375 -9.296875 9.0q-4.703125 6.390625 -8.8125 19.0q-4.09375 12.59375 -6.890625 34.0q4.609375 3.59375 10.296875 5.40625q5.703125 1.796875 11.3125 1.796875z" fill-rule="nonzero"/></g></svg>